<svg class="svg-icon" style="width: 1em; height: 1em;vertical-align: middle;fill: currentColor;overflow: hidden;" viewBox="0 0 1024 1024" version="1.1" xmlns="http://www.w3.org/2000/svg"><path d="M839.723531 760.776993 578.851059 196.514699l-38.650275-68.598354-86.932931 0-33.81106 68.598354-237.683331 564.263317 0.967024 1.933025c-0.967024 1.932002-0.967024 3.864004-0.967024 5.796006 0 11.594059 9.662057 21.258163 21.255093 21.258163l1.932002 0 0 0 79.230506 0 86.954421-204.832132 257.94684 0 97.585549 204.832132 91.785449 0 0 0 1.933025 0c11.593036 0 21.258163-9.664104 21.258163-21.258163C840.689532 765.608022 839.723531 763.674996 839.723531 760.776993L839.723531 760.776993 839.723531 760.776993 839.723531 760.776993 839.723531 760.776993zM392.405693 501.833453l90.797959-214.494189 102.410438 214.494189L392.405693 501.833453 392.405693 501.833453zM178.876482 824.545342l664.711054 0 0 71.497381L178.876482 896.042723 178.876482 824.545342 178.876482 824.545342zM178.876482 824.545342"  /></svg>