<?xml version="1.0" encoding="iso-8859-1"?>
<!-- Uploaded to: SVG Repo, www.svgrepo.com, Generator: SVG Repo Mixer Tools -->
<svg fill="#000000" height="800px" width="800px" version="1.1" id="Layer_1" xmlns="http://www.w3.org/2000/svg" xmlns:xlink="http://www.w3.org/1999/xlink" 
	 viewBox="0 0 385.556 385.556" xml:space="preserve">
<g>
	<g>
		<path d="M175.667,67.128h34.222V17.234c0-0.036,0.01-0.072,0.01-0.108s-0.01-0.072-0.01-0.107v-0.522h-0.051
			C209.5,7.337,202.02,0,192.778,0c-9.242,0-16.722,7.337-17.06,16.497h-0.051v0.522c0,0.036-0.01,0.067-0.01,0.107
			c0,0.036,0.01,0.067,0.01,0.108V67.128z"/>
		<path d="M192.778,169.262c23.562,0,42.66-19.103,42.66-42.66c0-23.562-19.098-42.66-42.66-42.66s-42.66,19.103-42.66,42.66
			S169.216,169.262,192.778,169.262z M192.778,109.486c9.452,0,17.116,7.665,17.116,17.116c0,9.452-7.665,17.116-17.116,17.116
			c-9.452,0-17.116-7.659-17.116-17.116C175.662,117.146,183.327,109.486,192.778,109.486z"/>
		<path d="M216.115,175.191l8.484,18.319c9.82-4.669,18.565-11.453,25.59-20.05l-9.877-21.33
			C234.911,162.156,226.401,170.23,216.115,175.191z"/>
		<path d="M159.355,192.788l8.294-18.463c-10.296-5.443-18.591-14.131-23.603-24.683l-9.994,22.246
			C140.913,180.818,149.571,187.858,159.355,192.788z"/>
		<polygon points="316.559,330.65 297.928,339.354 330.501,385.556 		"/>
		<path d="M266.46,208.594c-8.008,7.204-17.014,13.138-26.68,17.695l49.106,106.04l28.672-13.394L266.46,208.594z"/>
		<path d="M274.801,181.908l-11.095-7.496c-15.954,23.619-42.465,37.714-70.927,37.714c-30.188,0-57.559-15.437-73.216-41.293
			l-11.453,6.938c18.109,29.896,49.761,47.754,84.669,47.754C225.69,225.526,256.353,209.219,274.801,181.908z"/>
		<polygon points="55.055,385.556 87.629,339.354 68.997,330.65 		"/>
		<path d="M67.999,318.935l28.672,13.394l47.841-106.506c-9.661-4.69-18.575-10.829-26.516-18.202L67.999,318.935z"/>
	</g>
</g>
</svg>