<?xml version="1.0" encoding="UTF-8" standalone="no"?><!DOCTYPE svg PUBLIC "-//W3C//DTD SVG 1.1//EN" "http://www.w3.org/Graphics/SVG/1.1/DTD/svg11.dtd"><svg fill="#000000" width="800px" height="800px" viewBox="0 0 64 64" version="1.1" xmlns="http://www.w3.org/2000/svg" xmlns:xlink="http://www.w3.org/1999/xlink" xml:space="preserve" xmlns:serif="http://www.serif.com/" style="fill-rule:evenodd;clip-rule:evenodd;stroke-linejoin:round;stroke-miterlimit:2;">
<rect  x="-576" y="0" width="1280" height="800" style="fill:none;"/>
<g>
<g></g><g></g><g></g><g></g><g></g><g></g><g></g><g></g>
<g>
<path d="M14.563,17.167l7.468,-7.468l2.61,2.61l-10.107,10.107l-6.359,-6.358l2.64,-2.64l3.748,3.749Zm41.456,0.806l-27.993,0l0,-3.969l27.993,0l0,3.969Z"/>
<path d="M14.563,17.167l7.468,-7.468l2.61,2.61l-10.107,10.107l-6.359,-6.358l2.64,-2.64l3.748,3.749Zm41.456,0.806l-27.993,0l0,-3.969l27.993,0l0,3.969Z"/>
<path d="M14.563,49.167l7.468,-7.468l2.61,2.61l-10.107,10.107l-6.359,-6.358l2.64,-2.64l3.748,3.749Zm41.456,0.806l-27.993,0l0,-3.969l27.993,0l0,3.969Z"/>
<path d="M14.563,49.167l7.468,-7.468l2.61,2.61l-10.107,10.107l-6.359,-6.358l2.64,-2.64l3.748,3.749Zm41.456,0.806l-27.993,0l0,-3.969l27.993,0l0,3.969Z"/>
<path d="M14.563,33.167l7.468,-7.468l2.61,2.61l-10.107,10.107l-6.359,-6.358l2.64,-2.64l3.748,3.749Zm41.456,0.806l-27.993,0l0,-3.969l27.993,0l0,3.969Z"/>
<path d="M14.563,33.167l7.468,-7.468l2.61,2.61l-10.107,10.107l-6.359,-6.358l2.64,-2.64l3.748,3.749Zm41.456,0.806l-27.993,0l0,-3.969l27.993,0l0,3.969Z"/>
</g><g>
</g>
<g>
</g><g>
</g><g>
</g><g>

</g>

</g>

</svg>