<svg xmlns="http://www.w3.org/2000/svg" xmlns:xlink="http://www.w3.org/1999/xlink" viewBox="0 0 512 512" shape-rendering="geometricPrecision"><path d="M333.55,16.79L511,392.75c2.46,5.22.22,11.45-4.99,13.91-1.45.68-2.97,1.01-4.46,1l-177.77.03c-5.78,0-10.47-4.7-10.47-10.48v-376.63c0-5.78,4.69-10.47,10.47-10.47c4.44,0,8.25,2.77,9.77,6.68ZM240.3,402.16c0,18.18,26.25,21.89,30.98,3.74.28-1.29.45-2.4.45-3.74v-9.45c0-18.18-26.25-21.89-30.98-3.74-.28,1.29-.45,2.4-.45,3.74v9.45Zm0-72.3c0,18.18,26.25,21.89,30.98,3.74.28-1.29.45-2.4.45-3.74v-31.42c0-18.18-26.25-21.89-30.98-3.74-.28,1.29-.45,2.4-.45,3.74v31.42Zm0-94.27c0,18.18,26.25,21.89,30.98,3.74.28-1.29.45-2.4.45-3.74v-31.42c0-18.18-26.25-21.89-30.98-3.73-.28,1.28-.45,2.39-.45,3.73v31.42Zm0-94.26c0,18.17,26.25,21.88,30.98,3.73.28-1.28.45-2.39.45-3.73v-31.43c0-18.17-26.25-21.89-30.98-3.73-.28,1.28-.45,2.39-.45,3.73v31.43Zm0-94.27c0,18.17,26.25,21.89,30.98,3.73.28-1.28.45-2.39.45-3.73v-31.43c0-18.17-26.25-21.88-30.98-3.73-.28,1.29-.45,2.39-.45,3.73v31.43ZM1.33,392.11L178.79,16.12c2.46-5.21,8.7-7.45,13.91-4.99c3.78,1.78,5.99,5.54,5.99,9.45l.04,376.63c0,5.78-4.7,10.48-10.48,10.48h-177.77C4.69,407.69,0,402.99,0,397.21c0-1.85.48-3.59,1.33-5.1Zm483.72-5.37L334.26,67.26v319.48h150.79Z" transform="matrix(0 1-1 0 464.89955 0.001221)" clip-rule="evenodd"/></svg>
