<svg class="svg-icon" style="width: 1.181640625em; height: 1em;vertical-align: middle;fill: currentColor;overflow: hidden;" viewBox="0 0 1210 1024" version="1.1" xmlns="http://www.w3.org/2000/svg"><path d="M451.277356 2.475382 0.858806 782.877553c-1.919684 3.384706-0.454662 5.910607 3.182634 5.910607l901.291761 0c3.637296 0 5.051801-2.626936 3.182634-5.910607L458.097287 2.475382C456.177602-0.858806 453.146522-0.808288 451.277356 2.475382zM90.932412 730.99556 453.096004 104.622792l362.163592 626.372768L90.932412 730.99556z"  /><path d="M837.942181 973.481993c-113.614998 0-213.489097-59.964874-270.877553-150.493143l-57.438974 0c62.490775 119.62664 186.057819 201.011149 328.316527 201.011149 205.30518 0 371.762013-169.639467 371.762013-378.885052s-166.456833-378.885052-371.762013-378.885052c-57.085348 0-111.139615 13.134682-159.485348 36.524519l29.603552 41.778392c39.707153-17.883374 83.657819-27.784904 129.881796-27.784904 177.92442 0 322.15333 147.0074 322.15333 328.367045C1160.095511 826.474593 1015.866601 973.481993 837.942181 973.481993z"  /></svg>