<svg xmlns="http://www.w3.org/2000/svg" xmlns:xlink="http://www.w3.org/1999/xlink" fill="#aaa" style="filter: drop-shadow(1px 1px 1px #444);"  viewBox="0 0 33 33" shape-rendering="geometricPrecision" text-rendering="geometricPrecision"><path d="M40.348,23.401l-15-10.909c-.351-.256-.826-.256-1.177,0l-15,10.909c-.446.324-.545.95-.22,1.396.325.447.949.544,1.397.221l1.974-1.436v13.718c0,.553.448,1,1,1h8.075c.552,0,1-.447,1-1v-9.393h4.725v9.393c0,.553.448,1,1,1h8.075c.552,0,1-.447,1-1v-13.717l1.974,1.436c.178.129.384.191.587.191.309,0,.614-.143.81-.412.326-.446.226-1.072-.22-1.397Zm-5.151,12.9h-6.075v-9.393c0-.553-.448-1-1-1h-6.725c-.552,0-1,.447-1,1v9.393h-6.075v-14.173L24.76,14.537l10.438,7.591v14.173Z" transform="translate(-8.25971-8.8)"/></svg>
