<?xml version="1.0" encoding="utf-8"?>
<!-- Svg Vector Icons : http://www.onlinewebfonts.com/icon -->
<!DOCTYPE svg PUBLIC "-//W3C//DTD SVG 1.1//EN" "http://www.w3.org/Graphics/SVG/1.1/DTD/svg11.dtd">
<svg version="1.1" xmlns="http://www.w3.org/2000/svg" xmlns:xlink="http://www.w3.org/1999/xlink" x="0px" y="0px" viewBox="0 0 1000 1000" enable-background="new 0 0 1000 1000" xml:space="preserve">
<metadata> Svg Vector Icons : http://www.onlinewebfonts.com/icon </metadata>
<g><g transform="translate(0.000000,511.000000) scale(0.100000,-0.100000)"><path d="M4681.5,4943.8c-49-63.7-51.5-88.2-44.1-492.4c7.3-387.1,12.3-428.8,53.9-460.6c27-19.6,73.5-34.3,105.4-34.3c49,0,56.3-12.3,56.3-93.1v-93.1l-144.5-29.4c-210.7-44.1-428.8-164.2-615-340.6c-470.4-441-548.8-1141.7-193.5-1683.1c53.9-78.4,95.5-154.4,95.5-169c0-14.7-61.3-262.2-139.7-548.8l-137.2-521.8h-176.4c-181.3,0-257.3-36.7-257.3-125c0-93.1,71-142.1,215.6-149.5l142.1-7.3l-333.2-1251.9c-330.8-1237.2-335.7-1259.3-379.8-1719.9c-51.5-514.5-49-526.7,93.1-558.6c44.1-7.4,85.7-19.6,95.6-24.5c7.3-4.9-4.9-85.8-31.9-176.4c-58.8-203.3-58.8-257.2-2.5-306.3c58.8-53.9,134.8-53.9,181.3,2.4c22,22.1,75.9,186.2,122.5,360.2l83.3,318.5l1205.4,7.3l1205.4,4.9l36.7,58.8c44.1,66.1,17.1,169-49,196c-22.1,7.3-553.7,14.7-1180.9,14.7c-1073.1,0-1139.3,2.4-1129.4,44.1c7.3,22.1,191.1,717.8,411.6,1543.5L4372.8,208h595.4c519.4,0,597.8-4.9,612.5-39.2c7.3-19.6,203.3-744.8,436.1-1609.6l421.4-1572.9l210.7-421.4c215.6-428.8,249.9-470.4,362.6-436.1c76,24.5,95.6,112.7,95.6,431.2v291.6h1249.5H9606v-673.8V-4496h-392h-392v318.5c0,289.1-4.9,318.5-46.6,343c-75.9,39.2-144.5,29.4-183.8-29.4c-29.4-41.7-39.2-122.5-39.2-343V-4496H8381h-171.5v161.7c0,198.5-26.9,254.8-122.5,254.8c-115.2,0-147-53.9-147-247.4V-4496h-171.5H7597v166.6c0,186.2-39.2,249.9-149.4,249.9c-98,0-120.1-44.1-120.1-237.7V-4496H7156h-171.5v154.3c0,183.8-44.1,262.1-147,262.1s-147-78.4-147-262.1V-4496H6519h-171.5v318.5c0,289.1-4.9,318.5-46.6,343c-71,36.7-137.2,29.4-181.3-19.6c-34.3-36.7-41.7-100.5-41.7-343V-4496h-171.5H5735v169.1c0,186.2-31.8,247.4-134.7,247.4c-102.9,0-134.8-61.3-134.8-247.4V-4496H5294h-171.5v166.6c0,186.2-39.2,249.9-149.5,249.9c-98,0-120-44.1-120-237.7V-4496h-171.5H4510v154.3c0,183.8-44.1,262.1-147,262.1c-102.9,0-147-78.4-147-262.1V-4496h-171.5H3873v303.8c0,328.3-17.2,382.2-132.3,382.2c-115.2,0-137.2-63.7-137.2-387.1V-4496H3432h-171.5v169.1c0,193.5-31.8,247.4-147,247.4c-95.5,0-122.5-56.3-122.5-254.8V-4496h-171.5H2648v154.3c0,183.8-44.1,262.1-144.5,262.1c-105.4,0-132.3-51.4-127.4-245l4.9-171.5h-169h-169.1l-12.3,171.5c-14.7,193.6-44.1,245-144.5,245c-100.5,0-144.6-78.4-144.6-262.1V-4496H1570h-171.5v303.8c0,328.3-17.2,382.2-132.3,382.2c-115.2,0-137.2-63.7-137.2-387.1V-4496H761.5H394v673.8v673.8h1011.8c754.6,0,1019.2,7.3,1041.2,29.4c49,49,34.3,159.2-24.5,200.9c-49,34.3-198.4,39.2-1139.3,39.2c-1053.5,0-1087.8-2.4-1134.3-49c-46.5-46.6-49-80.8-49-906.5s2.5-859.9,49-906.5c49-49,80.8-49,4851-49s4802,0,4851,49c46.6,46.6,49,80.8,49,906.5s-2.4,859.9-49,906.5c-49,49-80.8,49-1396.5,49c-1173.6,0-1347.5,4.9-1347.5,36.8c0,29.4-749.7,2851.8-796.3,3003.7c-12.3,39.2-2.4,46.5,71.1,46.5h88.2v-120c0-139.6,44.1-198.4,144.6-198.4c117.6,0,124.9,29.4,124.9,458.2c0,392,0,399.3-58.8,436.1c-41.6,27-73.5,31.8-117.6,14.7c-73.5-27-93.1-71-93.1-213.2V477.5h-122.5c-120.1,0-120.1,2.5-144.6,93.1c-333.2,1247.1-494.9,1827.7-519.4,1857.1c-14.7,19.6-56.4,34.3-93.1,34.3c-100.4,0-497.3-115.2-519.4-151.9c-39.2-61.3-22.1-149.4,198.4-967.8C5392,891.5,5490,511.8,5490,499.6c0-12.3-220.5-22.1-521.8-22.1h-524.3l227.9,852.6c125,467.9,227.8,872.2,230.3,901.6c0,78.4-66.2,117.6-284.2,176.4c-237.6,63.7-311.1,66.2-355.2,14.7c-19.6-22-63.7-147-98-276.8l-63.7-235.2l-51.4,102.9c-83.3,161.7-117.6,414.1-83.3,600.3C4061.7,3130.8,4488,3491,5000,3491c438.6,0,820.8-264.6,982.4-681.1c78.4-196,78.4-519.4,0-732.6c-61.3-171.5-46.5-240.1,61.3-267c132.3-34.3,252.4,205.8,272,553.7c17.2,264.6-19.6,441-142.1,683.5c-169.1,338.1-526.7,619.9-882,693.4l-144.6,29.4v93.1c0,80.8,7.3,93.1,56.3,93.1c31.9,0,78.4,14.7,105.4,34.3c41.7,31.9,46.6,73.5,53.9,460.6c7.3,404.2,4.9,428.8-44.1,492.4c-51.4,63.7-58.8,66.2-318.5,66.2C4740.3,5010,4733,5007.5,4681.5,4943.8z M5073.5,4471v-245H5000h-73.5v245v245h73.5h73.5V4471z M4583.5,2101.8c0-39.2-1372-5184.2-1386.7-5198.9c-19.6-19.6-9.8,181.3,24.5,475.3c27,242.6,139.7,690.9,624.8,2511.2c325.9,1220.1,595.4,2229.5,600.2,2244.2C4461,2172.9,4583.5,2146,4583.5,2101.8z M6176-392.2c573.3-2138.8,661.5-2494.1,656.6-2621.5l-7.3-147l-63.7,122.5c-41.7,78.4-301.4,1006.9-727.7,2597c-365.1,1362.2-666.4,2496.5-671.3,2521c-9.8,63.7,105.3,98,132.3,41.7C5504.7,2099.4,5810.9,970,6176-392.2z"/></g></g>
</svg>