<svg id="eK1gvS08OEx1" xmlns="http://www.w3.org/2000/svg" xmlns:xlink="http://www.w3.org/1999/xlink" viewBox="0 0 32.25 32.25" shape-rendering="geometricPrecision" text-rendering="geometricPrecision"><g transform="matrix(.55 0 0 0.55 7.25625 7.25625)"><path d="M16.125,0C7.233,0,0,7.232,0,16.125s7.233,16.125,16.125,16.125c8.893,0,16.125-7.232,16.125-16.125s-7.234-16.125-16.125-16.125Zm0,28.25C9.439,28.25,4,22.811,4,16.125C4,9.439,9.439,4,16.125,4s12.125,5.439,12.125,12.125-5.439,12.125-12.125,12.125ZM21.25,16.125c0,2.83-2.295,5.125-5.125,5.125s-5.125-2.295-5.125-5.125s2.295-5.125,5.125-5.125s5.125,2.295,5.125,5.125Z"/></g></svg>
