<svg xmlns="http://www.w3.org/2000/svg" xmlns:xlink="http://www.w3.org/1999/xlink" viewBox="0 0 1000 1000" shape-rendering="geometricPrecision" text-rendering="geometricPrecision"><g transform="matrix(-1 0 0 1 999.994318 0)"><g transform="matrix(.1 0 0-.1 0 511)"><path d="M3719.2,5051.2C2468.7,4882.5,1402.4,4361,530.7,3494.5C245.3,3211.7,100,3030.1,100,2952.3c0-62.3,329.5-454,612.3-726.4c75.2-70,1618.9-1696.7,3432.3-3611.4c3064-3237.8,3305.2-3484.2,3383.1-3484.2c106.4,0,420.3,241.3,770.5,594.1c921,928.8,1471,2124.8,1585.1,3453.1c67.5,793.9-72.6,1701.9-378.8,2464.7C8744.5,3538.6,7014,4841,4964.4,5066.7c-319.1,36.3-931.3,28.6-1245.2-15.5ZM5086.4,4636c2934.2-404.7,4903.4-3201.4,4291.1-6094.2-163.4-770.5-524-1528.1-1022.2-2142.9-194.6-241.3-752.4-780.9-793.9-770.5-18.1,5.2-1528.1,1590.3-3359.7,3523.2C2370.1,1084.4,805.7,2734.4,725.2,2817.4L582.5,2965.3l166,171.2C1565.8,3964.1,2642.5,4503.7,3771,4649c303.6,38.9,996.3,31.2,1315.4-13Z"/><path d="M4500.1,4371.4c-7.8-13-15.6-93.4-18.2-184.2-7.8-184.2,44.1-272.4,127.1-220.5c59.7,38.9,103.8,329.5,57.1,386.6-33.7,41.5-142.7,54.5-166,18.1Z"/><path d="M3734.7,4342.9c-33.7-20.8-33.7-67.5-5.2-345.1c18.2-176.4,44.1-339.9,59.7-363.2c28.5-59.7,147.9-59.7,168.6-2.6c25.9,64.9-62.3,687.5-101.2,710.9-44,28.5-77.8,28.5-121.9,0Z"/><path d="M5309.5,4283.2c-25.9-20.8-67.4-160.8-109-355.4-75.2-350.2-64.9-402.1,59.7-386.6c62.3,7.8,70,25.9,121.9,254.2c93.4,420.3,93.4,430.7,49.3,477.4-51.8,49.3-67.4,51.9-121.9,10.4Z"/><path d="M2966.8,4174.3c-46.7-33.7-46.7-49.3-20.7-150.5c59.7-217.9,80.4-254.2,150.5-254.2c36.3,0,72.6,18.2,83,41.5c20.8,57.1-38.9,313.9-85.6,360.6-49.4,49.2-65,49.2-127.2,2.6Z"/><path d="M6030.7,4023.8c-54.5-85.6-103.8-269.8-83-319.1c10.4-28.5,38.9-38.9,85.6-33.7c59.7,5.2,80.4,33.7,134.9,158.3c49.3,114.2,57.1,163.4,36.3,194.6-41.4,69.9-129.7,67.3-173.8-.1Z"/><path d="M2219.6,3881.1c-41.5-38.9-7.8-140.1,132.3-409.9c111.6-215.3,160.9-288,205-293.2c36.3-5.2,67.4,10.4,85.6,44.1c23.3,44.1,0,103.8-129.7,365.8-132.3,264.6-166,311.3-215.3,311.3-33.8,0-70.1-7.7-77.9-18.1Z"/><path d="M6777.9,3722.8c-62.3-38.9-350.2-550-342.5-604.5c10.4-77.8,83-119.3,132.3-77.8c57.1,46.7,355.4,555.2,355.4,607.1c0,23.4-23.4,54.5-49.3,70.1-59.6,31.1-59.6,31.1-95.9,5.1Z"/><path d="M1630.7,3507.5c-23.3-44.1-15.6-75.2,54.5-181.6c93.4-147.9,147.9-186.8,212.7-150.5c67.5,38.9,51.9,127.1-46.7,264.6-98.6,132.4-173.8,155.7-220.5,67.5Z"/><path d="M7314.9,3157.3C7198.2,3025,7187.8,2988.7,7250,2929c57.1-59.7,83-51.9,171.3,44.1c134.9,140.1,158.2,189.4,124.5,249.1-44.1,85.5-116.7,64.8-230.9-64.9Z"/><path d="M3822.9,3133.9c-352.8-67.5-661.6-166-962.5-308.7-233.5-111.6-293.2-153.1-319.1-215.3-20.8-51.9-23.3-96-5.2-140.1c20.8-54.5,4475.3-4781.4,4589.4-4867c59.7-49.3,171.2-41.5,243.9,15.6c80.4,64.9,306.1,498.1,407.3,788.7c544.8,1559.2-38.9,3289.7-1413.9,4187.3-368.4,238.7-752.4,399.5-1203.8,505.9-300.9,67.3-1040.3,88.1-1336.1,33.6Zm1131.2-415.1C6240.9,2480.1,7231.9,1517.6,7509.5,236c62.3-288,75.2-788.7,28.5-1097.4-44.1-288-137.5-599.3-254.2-861.3-75.2-168.6-77.8-171.2-124.6-121.9-487.7,503.3-4075.7,4304.1-4075.7,4314.4c0,15.6,285.4,127.1,477.4,186.8c342.5,103.7,1006.6,132.3,1393.2,62.2Z"/><path d="M1101.4,3079.4c-23.3-20.8-41.5-54.5-41.5-70c0-18.2,111.6-147.9,243.9-288c238.7-251.7,246.5-256.8,306.1-217.9c31.1,20.7,59.7,59.7,59.7,80.4c0,51.9-446.2,537-492.9,537-18.2,0-54.5-18.1-75.3-41.5Z"/><path d="M7717.1,2495.7C7579.6,2379,7468,2264.8,7468,2241.5c0-54.5,49.3-106.4,98.6-106.4c46.7,0,550,417.7,550,456.6c0,176.4-111.5,147.9-399.5-96Z"/><path d="M8308.6,1992.4c-137.5-80.4-160.8-140.1-85.6-202.4c54.5-44.1,59.7-44.1,189.4,28.5c111.6,64.9,132.3,88.2,132.3,150.5c0,101.2-93.4,111.6-236.1,23.4Z"/><path d="M8472,1242.6c-155.7-59.7-293.2-127.1-306.1-150.5-28.6-51.9-7.8-114.2,46.7-134.9c41.5-15.6,583.7,173.8,651.2,225.7c18.2,15.6,31.1,57.1,25.9,93.4-10.3,101.2-93.4,93.4-417.7-33.7Z"/><path d="M8850.8,575.9c-111.6-25.9-150.5-75.2-124.5-155.7c18.2-51.9,83-59.7,254.2-33.7c114.2,20.8,163.4,88.2,121.9,166-31.1,57.1-80.3,59.7-251.6,23.4Z" transform="translate(.000001 0)"/><path d="M8656.2,-192.1c-163.4-7.8-207.5-18.2-228.3-57.1-18.2-36.3-13-62.2,20.8-103.8c41.5-49.3,62.3-51.9,378.8-33.7c277.6,15.6,339.9,25.9,363.2,64.9c20.8,31.1,20.8,57.1,0,90.8-31.1,46.7-147.9,57.1-534.5,38.9Z"/><path d="M8804.1,-962.6c-25.9-18.2-38.9-57.1-33.7-93.4c10.4-72.6,121.9-111.6,275-98.6c83,7.8,96,18.1,103.8,77.8c7.8,57.1-5.2,77.8-51.9,96-116.8,41.5-249.1,51.9-293.2,18.2Z"/><path d="M8251.5,-1580.1c-41.5-41.5-38.9-111.6,2.6-145.3c57.1-46.7,622.6-212.7,672-197.2c31.1,7.8,46.7,38.9,46.7,88.2c0,70.1-10.4,77.8-319.1,179-352.9,119.4-358.1,119.4-402.2,75.3Z"/><path d="M8326.7,-2425.8c-36.3-67.5,20.8-140.1,153.1-199.8c124.5-57.1,194.6-33.7,194.6,67.4c0,44.1-28.5,77.8-103.8,119.4-127.1,72.6-210.1,75.2-243.9,13Z"/><path d="M7623.7,-2807.2c-15.6-20.7-25.9-57.1-20.8-83c7.8-44.1,516.3-448.8,565.6-448.8c36.3,0,103.8,77.8,103.8,116.7c0,41.5-531.8,454-583.7,454-18.2,0-46.8-18.2-64.9-38.9Z"/><path d="M7447.3,-3603.7c-51.9-51.9-36.3-116.7,49.3-215.3c147.9-166.1,319.1-83,189.4,93.4-106.4,147.9-176.5,184.2-238.7,121.9Z"/></g></g></svg>
