<svg id="e6yzliB7kbo1" xmlns="http://www.w3.org/2000/svg" xmlns:xlink="http://www.w3.org/1999/xlink" viewBox="0 0 580 580" shape-rendering="geometricPrecision" text-rendering="geometricPrecision"><g transform="matrix(.710282 0.703918-.703918 0.710282 288.427851 27.424553)"><g><path d="M490.051,99.7L99.678,490.073c-4.071,4.071-10.673,4.072-14.744,0-78.095-78.095-143.314-261.802,0-405.117c154.329-154.329,352.982-63.433,405.117,0c3.656,4.448,4.071,10.673,0,14.744ZM92.449,467.814L467.792,92.471C363.749,-3.794,200.768,-1.39,99.678,99.7s-103.494,264.071-7.229,368.114Z" fill="rgba(34,34,34,0.867)"/></g><g><path d="M373.725,109.959L109.938,373.747c-8.153,7.184-15.512-.079-16.967-3.294-19.501-43.105-37.89-149.529,44.996-232.463C210.069,65.846,309.82,66.249,370.431,92.993c3.17,1.398,10.848,8.263,3.294,16.966ZM106.6,347.597L347.576,106.621c-68.316-22.734-143.335-5.418-194.864,46.112-51.53,51.529-68.846,126.547-46.112,194.864Z" fill="rgba(34,34,34,0.867)"/></g></g></svg>
