<svg xmlns="http://www.w3.org/2000/svg" xmlns:xlink="http://www.w3.org/1999/xlink" viewBox="0 0 1054 1054" shape-rendering="geometricPrecision" text-rendering="geometricPrecision"><path d="M193.92,982.72c-2.110154-.030056-4.122956-.892686-5.6-2.4L48,839.84c-1.514501-1.502133-2.366387-3.5469-2.366387-5.68s.851886-4.177867,2.366387-5.68L832.8,43.52c1.502133-1.514501,3.5469-2.366387,5.68-2.366387s4.177867.851886,5.68,2.366387L984.64,184c1.514501,1.502133,2.366387,3.5469,2.366387,5.68s-.851886,4.177867-2.366387,5.68L199.68,980.32c-1.515986,1.546689-3.594289,2.412649-5.76,2.4ZM64,834.24L193.12,963.36l774.56-773.6L838.56,60.48Z" transform="matrix(1.04185 0 0 1.055-10.927992-13.093331)"/><path d="M119.36,861.12c-2.110154-.030056-4.122956-.892686-5.6-2.4L73.44,818.4c-3.136977-3.136977-3.136977-8.223023,0-11.36s8.223023-3.136977,11.36,0L125.12,848c2.240958,2.285602,2.903804,5.68697,1.685056,8.646788s-4.084455,4.908251-7.285056,4.953212Zm26.4-26.4c-2.157354-.113361-4.177158-1.094408-5.6-2.72L99.84,792c-3.136977-3.136977-3.136977-8.223023,0-11.36s8.223023-3.136977,11.36,0l40.32,40.32c2.240958,2.285602,2.903804,5.68697,1.685056,8.646788s-4.084455,4.908251-7.285056,4.953212Zm26.4-26.4c-2.110154-.030056-4.122956-.892686-5.6-2.4L126.24,765.6c-3.136977-3.136977-3.136977-8.223023,0-11.36s8.223022-3.136977,11.36,0l40.32,40.32c2.240958,2.285602,2.903804,5.68697,1.685056,8.646788s-4.084455,4.908251-7.285056,4.953212Zm26.4-26.4c-2.110154-.030056-4.122956-.892686-5.6-2.4L152.64,739.2c-3.136977-3.136977-3.136977-8.223023,0-11.36s8.223022-3.136977,11.36,0L204.32,768c2.240958,2.285602,2.903804,5.68697,1.685056,8.646788s-4.084455,4.908251-7.285056,4.953212Zm55.84,3.04c-2.110154-.030056-4.122956-.892686-5.6-2.4L179.04,712.8c-3.136977-3.136977-3.136977-8.223023,0-11.36s8.223022-3.136977,11.36,0l69.76,69.76c2.240958,2.285602,2.903804,5.68697,1.685056,8.646788s-4.084455,4.908251-7.285056,4.953212Zm-3.52-55.36c-2.110154-.030056-4.122956-.892686-5.6-2.4l-40.32-40.32c-3.136977-3.136977-3.136977-8.223023,0-11.36s8.223023-3.136977,11.36,0L256,715.84c2.240958,2.285602,2.903804,5.68697,1.685056,8.646788s-4.084455,4.908251-7.285056,4.953212Zm26.4-26.4c-1.998244-.111393-3.88216-.967719-5.28-2.4l-40.32-40.32c-3.136977-3.136977-3.136977-8.223023,0-11.36s8.223022-3.136977,11.36,0l40.32,40.32c2.240958,2.285602,2.903804,5.68697,1.685056,8.646788s-4.084455,4.908251-7.285056,4.953212ZM304,676.8c-2.110154-.030056-4.122956-.892686-5.6-2.4l-40.32-40.32c-3.136977-3.136977-3.136977-8.223023,0-11.36s8.223022-3.136977,11.36,0l40.32,40.32c2.240958,2.285602,2.903804,5.68697,1.685056,8.646788s-4.084455,4.908251-7.285056,4.953212Zm26.08-26.4c-2.110154-.030056-4.122956-.892686-5.6-2.4l-40.32-40c-3.136977-3.136977-3.136977-8.223023,0-11.36s8.223022-3.136977,11.36,0l40.48,40c2.240958,2.285602,2.903804,5.68697,1.685056,8.646788s-4.084455,4.908251-7.285056,4.953212Zm55.84,3.04c-2.110154-.030056-4.122956-.892686-5.6-2.4l-69.76-69.76c-3.136977-3.136977-3.136977-8.223023,0-11.36s8.223022-3.136977,11.36,0L391.68,640c2.240958,2.285602,2.903804,5.68697,1.685056,8.646788s-4.084455,4.908251-7.285056,4.953212Zm-3.52-55.36c-2.110154-.030056-4.122956-.892686-5.6-2.4L336,555.36c-3.136977-3.136977-3.136977-8.223023,0-11.36s8.223022-3.136977,11.36,0l40.32,40.32c2.240958,2.285602,2.903804,5.68697,1.685056,8.646788s-4.084455,4.908251-7.285056,4.953212Zm26.4-26.4c-2.110154-.030056-4.122956-.892686-5.6-2.4l-40.32-40.32c-3.136977-3.136977-3.136977-8.223023,0-11.36s8.223022-3.136977,11.36,0l40.32,40.32c2.240958,2.285602,2.903804,5.68697,1.685056,8.646788s-4.084455,4.908251-7.285056,4.953212Zm26.4-26.4c-2.110154-.030056-4.122956-.892686-5.6-2.4l-40.32-40.32c-2.104536-3.103783-1.770697-7.252883.803017-9.980252s6.696511-3.300972,9.916983-1.379748l40.32,40.32c2.240958,2.285602,2.903804,5.68697,1.685056,8.646788s-4.084455,4.908251-7.285056,4.953212Zm26.4-26.4c-2.110154-.030056-4.122956-.892686-5.6-2.4l-40-40.32c-3.136977-3.136977-3.136977-8.223023,0-11.36s8.223022-3.136977,11.36,0l40.32,40.32c2.240958,2.285602,2.903804,5.68697,1.685056,8.646788s-4.084455,4.908251-7.285056,4.953212Zm55.84,3.04c-2.110154-.030056-4.122956-.892686-5.6-2.4l-69.76-69.76c-3.136977-3.136977-3.136977-8.223023,0-11.36s8.223022-3.136977,11.36,0l69.76,69.76c2.240958,2.285602,2.903804,5.68697,1.685056,8.646788s-4.084455,4.908251-7.285056,4.953212Zm-3.52-55.36c-2.110154-.030056-4.122956-.892686-5.6-2.4L468,423.84c-3.136977-3.136977-3.136977-8.223023,0-11.36s8.223022-3.136977,11.36,0l40.32,40.32c2.240958,2.285602,2.903804,5.68697,1.685056,8.646788s-4.084455,4.908251-7.285056,4.953212Zm26.4-26.4c-2.110154-.030056-4.122956-.892686-5.6-2.4L494.4,397.44c-3.136977-3.136977-3.136977-8.223023,0-11.36s8.223022-3.136977,11.36,0l40.32,40.32c2.240958,2.285602,2.903804,5.68697,1.685056,8.646788s-4.084455,4.908251-7.285056,4.953212Zm26.4-26.4c-2.110154-.030056-4.122956-.892686-5.6-2.4L520.8,371.04c-3.136977-3.136977-3.136977-8.223023,0-11.36s8.223022-3.136977,11.36,0L572.48,400c2.240958,2.285602,2.903804,5.68697,1.685056,8.646788s-4.084455,4.908251-7.285056,4.953212Zm26.4-26.4c-2.110154-.030056-4.122956-.892686-5.6-2.4L547.2,344.64c-3.136977-3.136977-3.136977-8.223023,0-11.36s8.223022-3.136977,11.36,0l40.32,40.32c2.240958,2.285602,2.903804,5.68697,1.685056,8.646788s-4.084455,4.908251-7.285056,4.953212Zm55.84,3.04c-2.110154-.030056-4.122956-.892686-5.6-2.4L573.6,318.24c-3.136977-3.136977-3.136977-8.223023,0-11.36s8.223022-3.136977,11.36,0l69.76,69.76c2.240958,2.285602,2.903804,5.68697,1.685056,8.646788s-4.084455,4.908251-7.285056,4.953212Zm-3.52-55.36c-2.110154-.030056-4.122956-.892686-5.6-2.4l-40.32-40.32c-3.136977-3.136977-3.136977-8.223023,0-11.36s8.223022-3.136977,11.36,0l40.32,40.32c2.240958,2.285602,2.903804,5.68697,1.685056,8.646788s-4.084455,4.908251-7.285056,4.953212ZM672,308.64c-2.110154-.030056-4.122956-.892686-5.6-2.4l-40.32-40.32c-3.136977-3.136977-3.136977-8.223023,0-11.36s8.223022-3.136977,11.36,0l40.32,40.32c2.240958,2.285602,2.903804,5.68697,1.685056,8.646788s-4.084455,4.908251-7.285056,4.953212Zm26.24-26.4c-2.110154-.030056-4.122956-.892686-5.6-2.4L652.32,240c-3.136977-3.136977-3.136977-8.223023,0-11.36s8.223022-3.136977,11.36,0L704,268.48c2.240958,2.285602,2.903804,5.68697,1.685056,8.646788s-4.084455,4.908251-7.285056,4.953212ZM724.64,256c-2.110154-.030056-4.122956-.892686-5.6-2.4l-40.32-40.32c-3.136977-3.136977-3.136977-8.223023,0-11.36s8.223023-3.136977,11.36,0l40.32,40.32c2.240958,2.285602,2.903804,5.68697,1.685056,8.646788s-4.084455,4.908251-7.285056,4.953212Zm55.84,2.88c-2.110154-.030056-4.122956-.892686-5.6-2.4l-69.76-69.76c-3.136977-3.136977-3.136977-8.223023,0-11.36s8.223022-3.136977,11.36,0l69.76,69.76c2.240958,2.285602,2.903804,5.68697,1.685056,8.646788s-4.084455,4.908251-7.285056,4.953212Zm-3.52-55.36c-2.110154-.030056-4.122956-.892686-5.6-2.4L731.04,160c-3.136977-3.136977-3.136977-8.223023,0-11.36s8.223022-3.136977,11.36,0l40.32,40.32c2.240958,2.285602,2.903804,5.68697,1.685056,8.646788s-4.084455,4.908251-7.285056,4.953212Zm26.4-26.4c-2.110154-.030056-4.122956-.892686-5.6-2.4L757.44,134.4c-1.987578-3.075247-1.633584-7.10738.859432-9.789261s6.488617-3.328858,9.700568-1.570739l40.32,40.32c2.240958,2.285602,2.903804,5.68697,1.685056,8.646788s-4.084455,4.908251-7.285056,4.953212Zm26.4-26.4c-2.110154-.030056-4.122956-.892686-5.6-2.4L784,108c-3.313708-3.048612-3.528612-8.206292-.48-11.52s8.206292-3.528612,11.52-.48l40.32,40.32c2.240958,2.285602,2.903804,5.68697,1.685056,8.646788s-4.084455,4.908251-7.285056,4.953212Zm26.4-26.4c-2.110154-.030056-4.122956-.892686-5.6-2.4L810.24,81.6c-3.136977-3.136977-3.136977-8.223023,0-11.36s8.223023-3.136977,11.36,0l40.32,40.32c2.240958,2.285602,2.903804,5.68697,1.685056,8.646788s-4.084455,4.908251-7.285056,4.953212Z" transform="translate(10.681008 15.065269)"/></svg>
